<mxfile host="app.diagrams.net" modified="2022-01-27T09:49:07.488Z" agent="5.0 (Windows NT 10.0; Win64; x64) AppleWebKit/537.36 (KHTML, like Gecko) Chrome/97.0.4692.99 Safari/537.36" etag="TC5D4y0ccq__cyqH9U0L" version="16.4.7" type="github">
  <diagram id="vNJq5MiqQpoV0B-jV93v" name="Page-1">
    <mxGraphModel dx="1422" dy="1963" grid="1" gridSize="10" guides="1" tooltips="1" connect="1" arrows="1" fold="1" page="1" pageScale="1" pageWidth="827" pageHeight="1169" math="0" shadow="0">
      <root>
        <mxCell id="0" />
        <mxCell id="1" parent="0" />
        <mxCell id="2rNoURDY08aQqDbP6qDz-2" value="" style="rounded=0;whiteSpace=wrap;html=1;" parent="1" vertex="1">
          <mxGeometry x="309" y="230" width="170" height="260" as="geometry" />
        </mxCell>
        <mxCell id="2rNoURDY08aQqDbP6qDz-3" value="&lt;font style=&quot;font-size: 16px&quot;&gt;Main Page&lt;/font&gt;" style="text;html=1;strokeColor=none;fillColor=none;align=center;verticalAlign=middle;whiteSpace=wrap;rounded=0;" parent="1" vertex="1">
          <mxGeometry x="350" y="240" width="100" height="30" as="geometry" />
        </mxCell>
        <mxCell id="2rNoURDY08aQqDbP6qDz-4" value="btn liste matÃ©riel" style="rounded=0;whiteSpace=wrap;html=1;" parent="1" vertex="1">
          <mxGeometry x="346" y="280" width="101" height="60" as="geometry" />
        </mxCell>
        <mxCell id="2rNoURDY08aQqDbP6qDz-5" value="btn mes info" style="rounded=0;whiteSpace=wrap;html=1;" parent="1" vertex="1">
          <mxGeometry x="346.5" y="350" width="107" height="60" as="geometry" />
        </mxCell>
        <mxCell id="2rNoURDY08aQqDbP6qDz-7" value="" style="endArrow=classic;html=1;rounded=0;edgeStyle=orthogonalEdgeStyle;" parent="1" source="2rNoURDY08aQqDbP6qDz-4" target="2rNoURDY08aQqDbP6qDz-8" edge="1">
          <mxGeometry width="50" height="50" relative="1" as="geometry">
            <mxPoint x="70" y="420" as="sourcePoint" />
            <mxPoint x="170" y="510" as="targetPoint" />
            <Array as="points">
              <mxPoint x="145" y="310" />
            </Array>
          </mxGeometry>
        </mxCell>
        <mxCell id="2rNoURDY08aQqDbP6qDz-8" value="" style="rounded=0;whiteSpace=wrap;html=1;" parent="1" vertex="1">
          <mxGeometry x="60" y="480" width="170" height="280" as="geometry" />
        </mxCell>
        <mxCell id="2rNoURDY08aQqDbP6qDz-9" value="&lt;font style=&quot;font-size: 17px&quot;&gt;Materiel page&lt;/font&gt;" style="text;html=1;strokeColor=none;fillColor=none;align=center;verticalAlign=middle;whiteSpace=wrap;rounded=0;" parent="1" vertex="1">
          <mxGeometry x="90" y="490" width="110" height="40" as="geometry" />
        </mxCell>
        <mxCell id="2rNoURDY08aQqDbP6qDz-10" value="&lt;font style=&quot;font-size: 16px&quot;&gt;tser&lt;br&gt;gants&lt;br&gt;.........&lt;/font&gt;" style="text;html=1;strokeColor=none;fillColor=none;align=center;verticalAlign=middle;whiteSpace=wrap;rounded=0;" parent="1" vertex="1">
          <mxGeometry x="100" y="540" width="90" height="140" as="geometry" />
        </mxCell>
        <mxCell id="2rNoURDY08aQqDbP6qDz-11" value="" style="rounded=0;whiteSpace=wrap;html=1;fontSize=16;" parent="1" vertex="1">
          <mxGeometry x="313.5" y="-140" width="161" height="270" as="geometry" />
        </mxCell>
        <mxCell id="2rNoURDY08aQqDbP6qDz-12" value="Login page" style="text;html=1;strokeColor=none;fillColor=none;align=center;verticalAlign=middle;whiteSpace=wrap;rounded=0;fontSize=16;" parent="1" vertex="1">
          <mxGeometry x="338.5" y="-130" width="110" height="30" as="geometry" />
        </mxCell>
        <mxCell id="2rNoURDY08aQqDbP6qDz-13" value="" style="endArrow=classic;html=1;rounded=0;fontSize=16;entryX=0.5;entryY=0;entryDx=0;entryDy=0;exitX=0.5;exitY=1;exitDx=0;exitDy=0;" parent="1" source="2rNoURDY08aQqDbP6qDz-11" target="2rNoURDY08aQqDbP6qDz-2" edge="1">
          <mxGeometry width="50" height="50" relative="1" as="geometry">
            <mxPoint x="400" y="180" as="sourcePoint" />
            <mxPoint x="450" y="130" as="targetPoint" />
          </mxGeometry>
        </mxCell>
        <mxCell id="2rNoURDY08aQqDbP6qDz-15" value="login" style="text;html=1;strokeColor=none;fillColor=none;align=center;verticalAlign=middle;whiteSpace=wrap;rounded=0;fontSize=16;" parent="1" vertex="1">
          <mxGeometry x="330" y="-50" width="106" height="30" as="geometry" />
        </mxCell>
        <mxCell id="2rNoURDY08aQqDbP6qDz-16" value="password" style="text;html=1;strokeColor=none;fillColor=none;align=center;verticalAlign=middle;whiteSpace=wrap;rounded=0;fontSize=16;" parent="1" vertex="1">
          <mxGeometry x="354" y="-20" width="86" height="30" as="geometry" />
        </mxCell>
        <mxCell id="2rNoURDY08aQqDbP6qDz-19" value="" style="endArrow=classic;html=1;rounded=0;fontSize=16;exitX=1;exitY=0.5;exitDx=0;exitDy=0;" parent="1" source="2rNoURDY08aQqDbP6qDz-5" target="2rNoURDY08aQqDbP6qDz-20" edge="1">
          <mxGeometry width="50" height="50" relative="1" as="geometry">
            <mxPoint x="400" y="580" as="sourcePoint" />
            <mxPoint x="670" y="490" as="targetPoint" />
            <Array as="points">
              <mxPoint x="645" y="380" />
            </Array>
          </mxGeometry>
        </mxCell>
        <mxCell id="2rNoURDY08aQqDbP6qDz-20" value="" style="rounded=0;whiteSpace=wrap;html=1;fontSize=16;" parent="1" vertex="1">
          <mxGeometry x="560" y="475" width="170" height="285" as="geometry" />
        </mxCell>
        <mxCell id="2rNoURDY08aQqDbP6qDz-21" value="Mes info" style="text;html=1;strokeColor=none;fillColor=none;align=center;verticalAlign=middle;whiteSpace=wrap;rounded=0;fontSize=16;" parent="1" vertex="1">
          <mxGeometry x="580" y="490" width="140" height="30" as="geometry" />
        </mxCell>
        <mxCell id="2rNoURDY08aQqDbP6qDz-22" value="lacrymo&lt;br&gt;etc......" style="text;html=1;strokeColor=none;fillColor=none;align=center;verticalAlign=middle;whiteSpace=wrap;rounded=0;fontSize=16;" parent="1" vertex="1">
          <mxGeometry x="590" y="555" width="110" height="95" as="geometry" />
        </mxCell>
        <mxCell id="KMSh0WxBBxks-9AP01sI-1" value="btn liste des agents" style="rounded=0;whiteSpace=wrap;html=1;" vertex="1" parent="1">
          <mxGeometry x="346.5" y="415" width="107" height="60" as="geometry" />
        </mxCell>
        <mxCell id="KMSh0WxBBxks-9AP01sI-2" value="" style="endArrow=classic;html=1;rounded=0;exitX=0.5;exitY=1;exitDx=0;exitDy=0;entryX=0.5;entryY=0;entryDx=0;entryDy=0;" edge="1" parent="1" source="KMSh0WxBBxks-9AP01sI-1" target="KMSh0WxBBxks-9AP01sI-3">
          <mxGeometry width="50" height="50" relative="1" as="geometry">
            <mxPoint x="390" y="580" as="sourcePoint" />
            <mxPoint x="400" y="540" as="targetPoint" />
          </mxGeometry>
        </mxCell>
        <mxCell id="KMSh0WxBBxks-9AP01sI-3" value="" style="rounded=0;whiteSpace=wrap;html=1;fontSize=16;" vertex="1" parent="1">
          <mxGeometry x="315" y="550" width="170" height="285" as="geometry" />
        </mxCell>
        <mxCell id="KMSh0WxBBxks-9AP01sI-6" value="Liste des agents" style="text;html=1;strokeColor=none;fillColor=none;align=center;verticalAlign=middle;whiteSpace=wrap;rounded=0;" vertex="1" parent="1">
          <mxGeometry x="330" y="555" width="140" height="30" as="geometry" />
        </mxCell>
        <mxCell id="KMSh0WxBBxks-9AP01sI-7" value="michel&lt;br&gt;bob&amp;nbsp;&lt;br&gt;etc....." style="text;html=1;strokeColor=none;fillColor=none;align=center;verticalAlign=middle;whiteSpace=wrap;rounded=0;" vertex="1" parent="1">
          <mxGeometry x="347" y="605" width="106" height="125" as="geometry" />
        </mxCell>
      </root>
    </mxGraphModel>
  </diagram>
</mxfile>
